<svg height='300px' width='300px'  fill="#000000" xmlns="http://www.w3.org/2000/svg" viewBox="0 0 100 100" version="1.1" x="0px" y="0px"><title>Download s21.5</title><desc>Created with Sketch.</desc><g stroke="none" stroke-width="1" fill="none" fill-rule="evenodd" transform="matrix(0, 1, -1, 0, 99.382278, -0.000002)"><g fill="#000000"><path d="M53.9861417,75.7443257 C53.9861417,77.9496952 55.7452893,79.4176268 57.9047641,78.9469564 C57.9047641,78.9469564 56.729141,79.2746763 58.0490711,78.9079458 C70.7087649,75.3905658 80,63.780325 80,50 C80,33.4314575 66.5685425,20 50,20 C33.4314575,20 20,33.4314575 20,50 C20,63.8046084 29.3240096,75.4314776 42.0178861,78.9264651 C43.3170391,79.2841591 42.0955785,78.9475293 42.0955785,78.9475293 C44.260135,79.3838914 46.0148547,77.9466113 46.0148547,75.7444404 L46.0148547,50.66718 C46.0148547,50.1146108 45.6997108,49.9828761 45.3066149,50.3774065 C45.3066149,50.3774065 42.0737784,53.6201938 40.9129019,54.7988168 C37.1183087,58.6074221 31.4816123,52.9505572 35.2390778,49.1796472 L47.4492517,37.0247054 C48.8179934,35.6641718 51.0452464,35.6574641 52.4231712,37.0105078 L64.7609222,49.1796472 C68.5183877,52.9505572 62.8816913,58.6074221 59.1242259,54.8365121 C57.9301603,53.6236277 54.695516,50.3786467 54.695516,50.3786467 C54.3037394,49.9854301 53.9861417,50.1150866 53.9861417,50.6671756 L53.9861417,75.7443257 Z" transform="translate(50.000000, 49.545546) rotate(-180.000000) translate(-50.000000, -49.545546) "></path></g></g></svg>